#Comment line ignore any data following # character 
#Hierarchical Translation and Rotation (.htr) file 
[Header]	
#Header keywords are followed by a single value 
FileType HTR		#Single word string
DataType HTRS		#Translation followed by rotation and scale data
FileVersion 1		#integer
NumSegments 84		#integer
NumFrames 2		#integer
DataFrameRate 30		#integer, data frame rate in this file
EulerRotationOrder ZYX
CalibrationUnits mm
RotationUnits Degrees
GlobalAxisofGravity Y
BoneLengthAxis Y
ScaleFactor 1.00
[SegmentNames&Hierarchy]
#CHILD	PARENT
MASTER GLOBAL
root MASTER
chest root
L_mid_tent01 root
R_mid_tent01 root
spine01 root
Bip01_Neck chest
L_humerus chest
R_humerus chest
weapon_bone chest
Bip01_Head Bip01_Neck
eye_left_bone Bip01_Head
eye_right_bone Bip01_Head
L_forearm L_humerus
L_front_hand L_forearm
L_weapon_bone L_forearm
L_front_hand01_01 L_front_hand
L_front_hand02_01 L_front_hand
L_front_hand03_01 L_front_hand
L_front_hand01_02 L_front_hand01_01
L_front_hand02_02 L_front_hand02_01
L_front_hand03_02 L_front_hand03_01
R_forearm R_humerus
R_front_hand R_forearm
R_weapon_bone R_forearm
R_front_hand01_01 R_front_hand
R_front_hand02_01 R_front_hand
R_front_hand03_01 R_front_hand
R_front_hand01_02 R_front_hand01_01
R_front_hand02_02 R_front_hand02_01
R_front_hand03_02 R_front_hand03_01
null_rope01_connect L_mid_tent01
Rope1_Seg01 null_rope01_connect
Rope1_Seg02 Rope1_Seg01
Rope1_Seg03 Rope1_Seg02
Rope1_Seg04 Rope1_Seg03
Rope1_Seg05 Rope1_Seg04
Rope1_Seg06 Rope1_Seg05
Rope1_Seg07 Rope1_Seg06
Rope1_Seg09 Rope1_Seg07
L_mid_hand01 Rope1_Seg09
L_mid_hand02 Rope1_Seg09
L_mid_hand03 Rope1_Seg09
null_rope02_connect R_mid_tent01
Rope2_Seg01 null_rope02_connect
Rope2_Seg02 Rope2_Seg01
Rope2_Seg03 Rope2_Seg02
Rope2_Seg04 Rope2_Seg03
Rope2_Seg05 Rope2_Seg04
Rope2_Seg06 Rope2_Seg05
Rope2_Seg07 Rope2_Seg06
Rope2_Seg09 Rope2_Seg07
R_mid_hand01 Rope2_Seg09
R_mid_hand02 Rope2_Seg09
R_mid_hand03 Rope2_Seg09
spine02 spine01
spine03 spine02
pelvis spine03
null_rope03_connect pelvis
null_rope04_connect pelvis
Rope3_Seg01 null_rope03_connect
Rope3_Seg02 Rope3_Seg01
Rope3_Seg03 Rope3_Seg02
Rope3_Seg04 Rope3_Seg03
Rope3_Seg05 Rope3_Seg04
Rope3_Seg06 Rope3_Seg05
Rope3_Seg07 Rope3_Seg06
Rope3_Seg08 Rope3_Seg07
Rope3_Seg09 Rope3_Seg08
R_rear_hand01 Rope3_Seg09
R_rear_hand02 Rope3_Seg09
R_rear_hand03 Rope3_Seg09
Rope4_Seg01 null_rope04_connect
Rope4_Seg02 Rope4_Seg01
Rope4_Seg03 Rope4_Seg02
Rope4_Seg04 Rope4_Seg03
Rope4_Seg05 Rope4_Seg04
Rope4_Seg06 Rope4_Seg05
Rope4_Seg07 Rope4_Seg06
Rope4_Seg08 Rope4_Seg07
Rope4_Seg09 Rope4_Seg08
L_rear_hand01 Rope4_Seg09
L_rear_hand02 Rope4_Seg09
L_rear_hand03 Rope4_Seg09
[BasePosition]
#SegmentName Tx, Ty, Tz, Rx, Ry, Rz, BoneLength
MASTER 0.000000 0.000000 0.000000 -90.000000 0.000000 0.000000 10.000000 
root 0.000000 0.000000 0.000000 0.000000 0.000000 0.000000 10.000000 
chest 0.000000 0.000000 0.000000 0.000000 0.000000 0.000000 10.000000 
L_mid_tent01 0.000000 0.000000 0.000000 0.000000 0.000000 0.000000 10.000000 
R_mid_tent01 0.000000 0.000000 0.000000 0.000000 0.000000 0.000000 10.000000 
spine01 0.000000 0.000000 0.000000 0.000000 0.000000 0.000000 10.000000 
Bip01_Neck 0.000000 0.000000 0.000000 0.000000 0.000000 0.000000 10.000000 
L_humerus 0.000000 0.000000 0.000000 0.000000 0.000000 0.000000 10.000000 
R_humerus 0.000000 0.000000 0.000000 0.000000 0.000000 0.000000 10.000000 
weapon_bone 0.000000 0.000000 0.000000 0.000000 0.000000 0.000000 10.000000 
Bip01_Head 0.000000 0.000000 0.000000 0.000000 0.000000 0.000000 10.000000 
eye_left_bone 0.000000 0.000000 0.000000 0.000000 0.000000 0.000000 10.000000 
eye_right_bone 0.000000 0.000000 0.000000 0.000000 0.000000 0.000000 10.000000 
L_forearm 0.000000 0.000000 0.000000 0.000000 0.000000 0.000000 10.000000 
L_front_hand 0.000000 0.000000 0.000000 0.000000 0.000000 0.000000 10.000000 
L_weapon_bone 0.000000 0.000000 0.000000 0.000000 0.000000 0.000000 10.000000 
L_front_hand01_01 0.000000 0.000000 0.000000 0.000000 0.000000 0.000000 10.000000 
L_front_hand02_01 0.000000 0.000000 0.000000 0.000000 0.000000 0.000000 10.000000 
L_front_hand03_01 0.000000 0.000000 0.000000 0.000000 0.000000 0.000000 10.000000 
L_front_hand01_02 0.000000 0.000000 0.000000 0.000000 0.000000 0.000000 10.000000 
L_front_hand02_02 0.000000 0.000000 0.000000 0.000000 0.000000 0.000000 10.000000 
L_front_hand03_02 0.000000 0.000000 0.000000 0.000000 0.000000 0.000000 10.000000 
R_forearm 0.000000 0.000000 0.000000 0.000000 0.000000 0.000000 10.000000 
R_front_hand 0.000000 0.000000 0.000000 0.000000 0.000000 0.000000 10.000000 
R_weapon_bone 0.000000 0.000000 0.000000 0.000000 0.000000 0.000000 10.000000 
R_front_hand01_01 0.000000 0.000000 0.000000 0.000000 0.000000 0.000000 10.000000 
R_front_hand02_01 0.000000 0.000000 0.000000 0.000000 0.000000 0.000000 10.000000 
R_front_hand03_01 0.000000 0.000000 0.000000 0.000000 0.000000 0.000000 10.000000 
R_front_hand01_02 0.000000 0.000000 0.000000 0.000000 0.000000 0.000000 10.000000 
R_front_hand02_02 0.000000 0.000000 0.000000 0.000000 0.000000 0.000000 10.000000 
R_front_hand03_02 0.000000 0.000000 0.000000 0.000000 0.000000 0.000000 10.000000 
null_rope01_connect 0.000000 0.000000 0.000000 0.000000 0.000000 0.000000 10.000000 
Rope1_Seg01 0.000000 0.000000 0.000000 0.000000 0.000000 0.000000 10.000000 
Rope1_Seg02 0.000000 0.000000 0.000000 0.000000 0.000000 0.000000 10.000000 
Rope1_Seg03 0.000000 0.000000 0.000000 0.000000 0.000000 0.000000 10.000000 
Rope1_Seg04 0.000000 0.000000 0.000000 0.000000 0.000000 0.000000 10.000000 
Rope1_Seg05 0.000000 0.000000 0.000000 0.000000 0.000000 0.000000 10.000000 
Rope1_Seg06 0.000000 0.000000 0.000000 0.000000 0.000000 0.000000 10.000000 
Rope1_Seg07 0.000000 0.000000 0.000000 0.000000 0.000000 0.000000 10.000000 
Rope1_Seg09 0.000000 0.000000 0.000000 0.000000 0.000000 0.000000 10.000000 
L_mid_hand01 0.000000 0.000000 0.000000 0.000000 0.000000 0.000000 10.000000 
L_mid_hand02 0.000000 0.000000 0.000000 0.000000 0.000000 0.000000 10.000000 
L_mid_hand03 0.000000 0.000000 0.000000 0.000000 0.000000 0.000000 10.000000 
null_rope02_connect 0.000000 0.000000 0.000000 0.000000 0.000000 0.000000 10.000000 
Rope2_Seg01 0.000000 0.000000 0.000000 0.000000 0.000000 0.000000 10.000000 
Rope2_Seg02 0.000000 0.000000 0.000000 0.000000 0.000000 0.000000 10.000000 
Rope2_Seg03 0.000000 0.000000 0.000000 0.000000 0.000000 0.000000 10.000000 
Rope2_Seg04 0.000000 0.000000 0.000000 0.000000 0.000000 0.000000 10.000000 
Rope2_Seg05 0.000000 0.000000 0.000000 0.000000 0.000000 0.000000 10.000000 
Rope2_Seg06 0.000000 0.000000 0.000000 0.000000 0.000000 0.000000 10.000000 
Rope2_Seg07 0.000000 0.000000 0.000000 0.000000 0.000000 0.000000 10.000000 
Rope2_Seg09 0.000000 0.000000 0.000000 0.000000 0.000000 0.000000 10.000000 
R_mid_hand01 0.000000 0.000000 0.000000 0.000000 0.000000 0.000000 10.000000 
R_mid_hand02 0.000000 0.000000 0.000000 0.000000 0.000000 0.000000 10.000000 
R_mid_hand03 0.000000 0.000000 0.000000 0.000000 0.000000 0.000000 10.000000 
spine02 0.000000 0.000000 0.000000 0.000000 0.000000 0.000000 10.000000 
spine03 0.000000 0.000000 0.000000 0.000000 0.000000 0.000000 10.000000 
pelvis 0.000000 0.000000 0.000000 0.000000 0.000000 0.000000 10.000000 
null_rope03_connect 0.000000 0.000000 0.000000 0.000000 0.000000 0.000000 10.000000 
null_rope04_connect 0.000000 0.000000 0.000000 0.000000 0.000000 0.000000 10.000000 
Rope3_Seg01 0.000000 0.000000 0.000000 0.000000 0.000000 0.000000 10.000000 
Rope3_Seg02 0.000000 0.000000 0.000000 0.000000 0.000000 0.000000 10.000000 
Rope3_Seg03 0.000000 0.000000 0.000000 0.000000 0.000000 0.000000 10.000000 
Rope3_Seg04 0.000000 0.000000 0.000000 0.000000 0.000000 0.000000 10.000000 
Rope3_Seg05 0.000000 0.000000 0.000000 0.000000 0.000000 0.000000 10.000000 
Rope3_Seg06 0.000000 0.000000 0.000000 0.000000 0.000000 0.000000 10.000000 
Rope3_Seg07 0.000000 0.000000 0.000000 0.000000 0.000000 0.000000 10.000000 
Rope3_Seg08 0.000000 0.000000 0.000000 0.000000 0.000000 0.000000 10.000000 
Rope3_Seg09 0.000000 0.000000 0.000000 0.000000 0.000000 0.000000 10.000000 
R_rear_hand01 0.000000 0.000000 0.000000 0.000000 0.000000 0.000000 10.000000 
R_rear_hand02 0.000000 0.000000 0.000000 0.000000 0.000000 0.000000 10.000000 
R_rear_hand03 0.000000 0.000000 0.000000 0.000000 0.000000 0.000000 10.000000 
Rope4_Seg01 0.000000 0.000000 0.000000 0.000000 0.000000 0.000000 10.000000 
Rope4_Seg02 0.000000 0.000000 0.000000 0.000000 0.000000 0.000000 10.000000 
Rope4_Seg03 0.000000 0.000000 0.000000 0.000000 0.000000 0.000000 10.000000 
Rope4_Seg04 0.000000 0.000000 0.000000 0.000000 0.000000 0.000000 10.000000 
Rope4_Seg05 0.000000 0.000000 0.000000 0.000000 0.000000 0.000000 10.000000 
Rope4_Seg06 0.000000 0.000000 0.000000 0.000000 0.000000 0.000000 10.000000 
Rope4_Seg07 0.000000 0.000000 0.000000 0.000000 0.000000 0.000000 10.000000 
Rope4_Seg08 0.000000 0.000000 0.000000 0.000000 0.000000 0.000000 10.000000 
Rope4_Seg09 0.000000 0.000000 0.000000 0.000000 0.000000 0.000000 10.000000 
L_rear_hand01 0.000000 0.000000 0.000000 0.000000 0.000000 0.000000 10.000000 
L_rear_hand02 0.000000 0.000000 0.000000 0.000000 0.000000 0.000000 10.000000 
L_rear_hand03 0.000000 0.000000 0.000000 0.000000 0.000000 0.000000 10.000000 
#Beginning of Data. Separated by tabs
#Fr	Tx	Ty	Tz	Rx	Ry	Rz	SF
[MASTER]
50 -452.563049 -13325.278320 -104.830307 0.000000 -0.002347 -90.000000 13333.373047
51 -420.250885 -13502.991211 -88.648872 0.000000 -0.002347 -90.000000 13509.820313
[root]
50 -62.822273 16.502295 1500.000000 -90.876648 -30.306963 -177.479187 1501.405640
51 -62.822273 16.502296 1500.000000 -95.321465 -28.814901 -178.541656 1501.405640
[chest]
50 -84.512650 -34.090519 0.000000 -8.229010 -4.561096 178.674088 91.129311
51 -84.512650 -34.090519 0.000000 -9.339821 -4.196820 177.565338 91.129311
[L_mid_tent01]
50 27.300301 22.177586 -249.918259 -4.712863 19.315372 48.218739 252.381241
51 27.300316 22.177588 -249.918259 -4.919322 23.778568 52.164818 252.381241
[R_mid_tent01]
50 23.228794 24.509907 226.238495 -178.845215 -19.140326 47.151993 228.744751
51 23.228794 24.509907 226.238495 179.602234 -22.333553 49.798939 228.744751
[spine01]
50 -0.361383 -0.195265 0.000000 0.001687 0.001632 1.890996 0.410763
51 -0.361383 -0.195265 0.000000 0.001687 0.001632 1.890996 0.410763
[Bip01_Neck]
50 165.484543 71.581718 0.000119 176.643677 -1.657967 43.431911 180.302734
51 165.484543 71.581718 0.000119 176.643677 -1.657967 43.431911 180.302734
[L_humerus]
50 -13.983130 -135.272980 -120.471481 156.317398 70.210068 -112.010254 181.680161
51 -13.983130 -135.272980 -120.471481 156.317398 70.210068 -112.010254 181.680161
[R_humerus]
50 -13.983309 -135.273102 125.287651 -172.382263 -66.903831 -92.553993 184.909012
51 -13.983309 -135.273102 125.287651 -172.382263 -66.903831 -92.553993 184.909012
[weapon_bone]
50 235.964890 -300.705902 0.000000 0.000000 -89.951546 -128.212341 382.234833
51 235.964890 -300.705902 0.000000 0.000000 -89.951546 -128.212341 382.234833
[Bip01_Head]
50 213.444855 185.715988 11.771116 21.510605 3.524871 -43.886967 283.174316
51 213.444916 185.715897 11.772092 21.521971 3.319143 -43.891544 283.174347
[eye_left_bone]
50 -24.626970 125.451866 -64.772606 0.000000 -90.000000 -99.840431 143.318359
51 -24.626970 125.451866 -64.772606 0.000000 -90.000000 -99.840431 143.318359
[eye_right_bone]
50 -24.626970 125.451866 64.327362 0.000000 -89.965736 80.156380 143.117676
51 -24.626970 125.451866 64.327362 0.000000 -89.965736 80.156380 143.117676
[L_forearm]
50 322.776093 0.000000 -0.000119 0.000119 -0.002344 -95.807457 322.776093
51 322.776093 0.000000 -0.000119 0.000119 -0.002344 -95.807457 322.776093
[L_front_hand]
50 241.149185 -0.042021 -3.300071 -178.667953 -1.835447 -27.422350 241.171753
51 241.149185 -0.042021 -3.300071 -178.667953 -1.835447 -27.422350 241.171753
[L_weapon_bone]
50 156.183838 0.000000 0.000000 0.000014 0.000007 0.000001 156.183838
51 156.183838 0.000000 0.000000 0.000014 0.000007 0.000001 156.183838
[L_front_hand01_01]
50 86.095154 20.947098 -0.655860 -0.366594 -0.477154 75.385574 88.609184
51 86.095154 20.947098 -0.655860 -0.366594 -0.477154 75.385574 88.609184
[L_front_hand02_01]
50 86.935165 -11.437475 24.513514 154.399796 -59.883835 -61.369587 91.046425
51 86.935165 -11.437475 24.513514 154.399796 -59.883835 -61.369587 91.046425
[L_front_hand03_01]
50 86.637497 -14.123976 -20.424902 -153.913849 58.118130 -62.702866 90.126129
51 86.637497 -14.123976 -20.424902 -153.913849 58.118122 -62.702866 90.126129
[L_front_hand01_02]
50 71.020905 -0.000179 0.000030 0.000334 -0.002323 -106.379684 71.020905
51 71.020905 -0.000179 0.000030 0.000334 -0.002323 -106.379684 71.020905
[L_front_hand02_02]
50 71.020927 -0.000119 0.000060 0.000334 -0.002323 -106.379684 71.020927
51 71.020927 -0.000119 0.000060 0.000334 -0.002323 -106.379684 71.020927
[L_front_hand03_02]
50 71.020905 -0.000060 0.000060 0.000334 -0.002323 -106.379684 71.020905
51 71.020905 -0.000060 0.000060 0.000334 -0.002323 -106.379684 71.020905
[R_forearm]
50 322.776428 -0.000060 0.000030 0.209504 0.012586 -94.339050 322.776428
51 322.776428 -0.000060 0.000030 0.209504 0.012586 -94.339050 322.776428
[R_front_hand]
50 238.847015 -0.006795 2.210259 -2.635298 -10.645461 -26.312506 238.857239
51 238.847015 -0.006795 2.210259 -2.635298 -10.645461 -26.312506 238.857239
[R_weapon_bone]
50 155.664093 0.002503 -0.000030 0.003487 0.001180 -90.988930 155.664078
51 155.664093 0.002503 -0.000030 0.003487 0.001180 -90.988930 155.664078
[R_front_hand01_01]
50 87.624611 14.231146 22.918642 -154.633499 -59.950619 61.746044 91.683487
51 87.624611 14.231146 22.918642 -154.633484 -59.950619 61.746037 91.683487
[R_front_hand02_01]
50 89.356956 14.367283 -19.491137 154.602661 58.302849 63.744389 92.579636
51 89.356956 14.367283 -19.491137 154.602661 58.302849 63.744389 92.579636
[R_front_hand03_01]
50 87.286232 -22.307278 -0.143439 0.162155 -0.423168 -75.767921 90.091743
51 87.286232 -22.307278 -0.143439 0.162155 -0.423168 -75.767921 90.091743
[R_front_hand01_02]
50 71.020905 0.000060 0.000119 0.002323 -0.000334 106.381714 71.020905
51 71.020905 0.000060 0.000119 0.002323 -0.000334 106.381714 71.020905
[R_front_hand02_02]
50 71.020844 -0.000030 -0.000119 0.002323 -0.000334 106.381714 71.020836
51 71.020844 -0.000030 -0.000119 0.002323 -0.000334 106.381714 71.020836
[R_front_hand03_02]
50 71.020905 0.000000 0.000030 0.002323 -0.000334 106.381714 71.020905
51 71.020905 0.000000 0.000030 0.002323 -0.000334 106.381714 71.020905
[null_rope01_connect]
50 328.732483 0.000000 -0.000238 127.066559 71.422760 18.668810 328.732483
51 328.732483 0.000000 -0.000238 131.392624 61.974636 17.747047 328.732483
[Rope1_Seg01]
50 0.000036 0.001088 0.000000 141.535797 32.355663 21.603155 0.001088
51 0.000036 0.001110 0.000000 136.120331 31.143639 14.490148 0.001110
[Rope1_Seg02]
50 139.999863 -0.000179 0.000000 13.702114 -16.391018 -0.813546 139.999863
51 139.999863 -0.000179 0.000000 9.837269 -13.377122 -0.754926 139.999863
[Rope1_Seg03]
50 139.999924 0.000060 -0.000060 8.463505 -26.886871 5.101862 139.999924
51 139.999924 0.000060 -0.000060 8.507152 -25.500973 2.960534 139.999924
[Rope1_Seg04]
50 139.999924 -0.000060 -0.000119 0.818987 -26.347607 7.022561 139.999924
51 139.999924 -0.000060 -0.000119 0.563152 -32.434486 6.150732 139.999924
[Rope1_Seg05]
50 139.999832 0.000119 -0.000060 -1.499380 -12.189202 7.882636 139.999832
51 139.999832 0.000119 -0.000060 -3.143473 -16.368589 7.891760 139.999832
[Rope1_Seg06]
50 139.999954 0.000119 -0.000060 -0.170029 -9.114152 13.186907 139.999954
51 139.999954 0.000119 -0.000060 -1.438792 -11.313774 12.524387 139.999954
[Rope1_Seg07]
50 139.999985 0.000060 0.000000 0.438144 -8.580355 11.953247 139.999985
51 139.999985 0.000060 0.000000 -1.648964 -9.598022 9.905416 139.999985
[Rope1_Seg09]
50 121.602913 0.000119 -0.000089 -89.793175 -1.359789 0.847147 121.602913
51 121.602913 0.000119 -0.000089 -89.793175 -1.359789 0.847147 121.602913
[L_mid_hand01]
50 103.859421 1.038730 8.195221 130.544373 -67.584534 -38.866943 104.187431
51 103.859421 1.038730 8.195221 130.544373 -67.584534 -38.866943 104.187431
[L_mid_hand02]
50 105.572853 -4.139662 -10.864139 -168.923172 43.409309 -73.498886 106.211075
51 105.572853 -4.139662 -10.864139 -168.923172 43.409309 -73.498886 106.211075
[L_mid_hand03]
50 104.641464 17.579376 -3.913581 -6.012626 17.808172 74.893661 106.179977
51 104.641464 17.579376 -3.913581 -6.012627 17.808174 74.893669 106.179977
[null_rope02_connect]
50 328.732849 0.000179 -0.000119 106.567978 -69.094238 -179.304489 328.732849
51 328.732849 0.000179 -0.000119 98.949615 -69.905281 -167.311722 328.732849
[Rope2_Seg01]
50 -0.000042 -0.000021 0.000000 163.764908 37.791019 121.589378 0.000047
51 -0.000042 -0.000017 0.000000 164.663635 42.419537 118.764572 0.000045
[Rope2_Seg02]
50 139.999741 -0.000060 -0.000119 8.256753 -9.689101 -1.037729 139.999756
51 139.999741 -0.000060 -0.000119 6.779872 -11.062238 -0.531203 139.999756
[Rope2_Seg03]
50 140.000107 0.000030 0.000000 5.888048 -16.236212 0.956921 140.000107
51 140.000107 0.000030 0.000000 4.383553 -19.036673 2.142115 140.000107
[Rope2_Seg04]
50 139.999802 0.000000 -0.000060 -3.193451 -21.948772 12.277863 139.999802
51 139.999802 0.000000 -0.000060 -3.098925 -25.008118 12.940568 139.999802
[Rope2_Seg05]
50 139.999985 -0.000060 0.000119 4.520820 -25.587128 -9.681964 139.999985
51 139.999985 -0.000060 0.000119 0.898148 -23.983711 -10.644552 139.999985
[Rope2_Seg06]
50 139.999893 -0.000030 -0.000119 -0.343987 -17.608255 -17.672123 139.999893
51 139.999893 -0.000030 -0.000119 -3.978376 -14.628476 -17.285608 139.999893
[Rope2_Seg07]
50 139.999893 0.000060 -0.000060 -1.681727 -7.305851 -5.335002 139.999893
51 139.999893 0.000060 -0.000060 -2.603125 -6.255156 -5.789062 139.999893
[Rope2_Seg09]
50 121.338966 0.000089 -0.000060 33.793236 -1.359788 -0.847141 121.338966
51 121.338966 0.000089 -0.000060 33.793236 -1.359788 -0.847141 121.338966
[R_mid_hand01]
50 104.680779 11.144459 -10.335981 -16.212063 45.237247 70.462852 105.778534
51 104.680779 11.144459 -10.335981 -16.212063 45.237247 70.462852 105.778534
[R_mid_hand02]
50 104.070427 2.443552 8.231699 49.067368 -67.749771 39.286453 104.424065
51 104.070427 2.443552 8.231699 49.067368 -67.749771 39.286453 104.424065
[R_mid_hand03]
50 106.028137 -11.221827 -5.996406 -177.101105 15.551026 -76.585571 106.788818
51 106.028137 -11.221827 -5.996406 -177.101105 15.551026 -76.585571 106.788818
[spine02]
50 129.756927 0.001550 0.000119 -1.023899 -3.926965 6.770993 129.756927
51 129.756927 0.001550 0.000119 -1.023899 -3.926965 6.770993 129.756927
[spine03]
50 78.614349 0.087606 -4.898912 1.040681 4.146420 4.212376 78.766884
51 78.614365 0.087612 -4.898913 1.040681 4.146420 4.212376 78.766899
[pelvis]
50 169.435242 0.051022 0.000000 -2.703174 -0.187405 -10.719974 169.435257
51 169.435242 0.051022 0.000000 0.019497 -0.190233 -10.721436 169.435257
[null_rope03_connect]
50 -1.257226 -2.466202 137.391083 -170.051117 86.551392 128.257889 137.418976
51 -1.257226 -2.466202 137.391083 165.206207 84.928391 102.013535 137.418976
[null_rope04_connect]
50 -1.259640 -2.480268 -137.844437 -170.051117 86.551392 128.257889 137.872513
51 -1.259640 -2.480268 -137.844437 165.206207 84.928391 102.013535 137.872513
[Rope3_Seg01]
50 0.000036 0.001088 0.000000 -133.569946 -10.843027 122.050034 0.001088
51 0.000036 0.001110 0.000000 -132.654694 -9.077361 118.727089 0.001110
[Rope3_Seg02]
50 139.999924 -0.000119 0.000060 -0.368129 -16.644079 -36.409805 139.999924
51 139.999924 -0.000119 0.000060 -5.664813 -14.261252 -41.175320 139.999924
[Rope3_Seg03]
50 139.999924 -0.000119 0.000119 -83.414200 -8.276026 -28.714174 139.999924
51 139.999924 -0.000119 0.000119 -87.261772 -3.794438 -33.588646 139.999924
[Rope3_Seg04]
50 139.999924 0.000119 0.000000 -90.959000 27.175505 -26.606682 139.999924
51 139.999924 0.000119 0.000000 -79.512085 34.214401 -28.028620 139.999924
[Rope3_Seg05]
50 139.999924 -0.000238 0.000060 -2.547022 12.678151 11.370759 139.999924
51 139.999924 -0.000238 0.000060 -3.118865 13.695827 9.630752 139.999924
[Rope3_Seg06]
50 139.999893 -0.000119 -0.000060 -0.027053 3.952949 4.331816 139.999893
51 139.999893 -0.000119 -0.000060 -0.161747 4.144520 3.693305 139.999893
[Rope3_Seg07]
50 139.999771 0.000060 -0.000119 0.282085 2.345278 2.579956 139.999771
51 139.999771 0.000060 -0.000119 0.221266 2.431340 2.188035 139.999771
[Rope3_Seg08]
50 139.999985 -0.000060 0.000000 0.414902 1.356515 1.480538 139.999985
51 139.999985 -0.000060 0.000000 0.387969 1.402118 1.252845 139.999985
[Rope3_Seg09]
50 90.185997 -0.000179 -0.000060 89.793228 -1.359877 -0.847183 90.185997
51 90.185997 -0.000179 -0.000060 89.793228 -1.359877 -0.847183 90.185997
[R_rear_hand01]
50 103.366196 -6.073594 -10.757982 -177.714203 24.565960 -73.910950 104.101845
51 103.366196 -6.073594 -10.757982 -177.714203 24.565960 -73.910950 104.101845
[R_rear_hand02]
50 100.509819 12.039542 -7.992327 -12.874829 36.868488 72.167213 101.543350
51 100.509819 12.039542 -7.992327 -12.874829 36.868488 72.167213 101.543350
[R_rear_hand03]
50 101.539970 5.215704 5.435467 71.484581 -71.816628 21.513813 101.819031
51 101.539970 5.215704 5.435467 71.484581 -71.816628 21.513813 101.819031
[Rope4_Seg01]
50 0.000008 0.001092 -0.000153 53.196159 -26.477921 71.396835 0.001102
51 0.000009 0.001113 -0.000153 55.396717 -25.775106 65.349724 0.001124
[Rope4_Seg02]
50 139.999985 0.000060 0.000119 4.303485 -36.628414 45.898029 139.999985
51 139.999985 0.000060 0.000119 9.843331 -40.878727 48.464905 139.999985
[Rope4_Seg03]
50 139.999924 0.000000 -0.000238 9.917678 -10.575696 31.383804 139.999924
51 139.999924 0.000000 -0.000238 12.054499 -7.465452 29.872406 139.999924
[Rope4_Seg04]
50 139.999985 0.000000 0.000119 4.960456 -7.974902 18.528196 139.999985
51 139.999985 0.000000 0.000119 6.990208 -9.843647 24.994326 139.999985
[Rope4_Seg05]
50 139.999802 -0.000060 -0.000119 5.423287 -12.560780 31.522764 139.999802
51 139.999802 -0.000060 -0.000119 5.456320 -9.124811 31.777332 139.999802
[Rope4_Seg06]
50 139.999924 0.000000 0.000060 2.777338 -4.051406 17.366083 139.999924
51 139.999924 0.000000 0.000060 1.572742 -1.371089 11.592405 139.999924
[Rope4_Seg07]
50 139.999802 0.000000 0.000000 1.043446 -1.178215 7.623551 139.999802
51 139.999802 0.000000 0.000000 0.643674 -0.502896 6.055343 139.999802
[Rope4_Seg08]
50 139.999924 0.000000 0.000119 -1.066638 -0.544849 4.023674 139.999924
51 139.999924 0.000000 0.000119 -1.256877 -0.234345 3.293772 139.999924
[Rope4_Seg09]
50 90.185791 0.000060 0.000060 -135.617828 2.228885 0.850567 90.185791
51 90.185791 0.000060 0.000060 -135.617828 2.228885 0.850567 90.185791
[L_rear_hand01]
50 101.696655 -8.392275 -7.654577 -12.874829 -36.868488 107.832764 102.329041
51 101.696655 -8.392275 -7.654577 -12.874829 -36.868488 107.832764 102.329041
[L_rear_hand02]
50 102.726799 -1.568258 5.773216 71.484581 71.816628 158.486160 102.900848
51 102.726799 -1.568258 5.773216 71.484581 71.816628 158.486160 102.900848
[L_rear_hand03]
50 104.552910 9.721220 -10.420293 -177.714203 -24.565960 -106.089035 105.519653
51 104.552910 9.721220 -10.420293 -177.714203 -24.565960 -106.089035 105.519653
